<svg xmlns="http://www.w3.org/2000/svg" xmlns:xlink="http://www.w3.org/1999/xlink" fill="none" version="1.1" width="42" height="42" viewBox="0 0 42 42"><defs><clipPath id="master_svg0_3_24"><rect x="0" y="0" width="42" height="42" rx="0"/></clipPath></defs><g clip-path="url(#master_svg0_3_24)"><path d="M35,8.74993896484375C35,11.64943316484375,32.649494000000004,13.99993796484375,29.75,13.99993796484375C26.850504,13.99993796484375,24.5,11.64943316484375,24.5,8.74993896484375C24.5,5.85044356484375,26.850504,3.49993896484375,29.75,3.49993896484375C32.649494000000004,3.49993896484375,35,5.85044356484375,35,8.74993896484375ZM12.25,5.24993916484375C8.3840072,5.24993886484375,5.25000031292439,8.38394596484375,5.25,12.24993996484375L5.25,15.74993996484375L8.7499998,15.74993996484375L8.7499998,12.24993896484375C8.7500005,10.31694226484375,10.3170037,8.74993896484375,12.25,8.749938464843751L17.500000999999997,8.749938464843751L17.500000999999997,5.24993916484375L12.25,5.24993916484375ZM29.75,36.74993896484375C33.615992,36.74993896484375,36.75,33.61593196484375,36.75,29.74993896484375L36.75,26.24993896484375L33.25,26.24993896484375L33.25,29.74993896484375C33.25,31.68293596484375,31.682999,33.249940964843745,29.750002,33.24993896484375L24.500002,33.24993896484375L24.500002,36.74993896484375L29.75,36.74993896484375ZM12.25,27.99994096484375C15.1494951,27.99994096484375,17.500000999999997,25.64943496484375,17.500000999999997,22.74994096484375C17.500000999999997,19.85044696484375,15.1494951,17.499940964843752,12.25,17.499940964843752C9.3505054,17.499940964843752,7.0000002,19.85044696484375,7.0000002,22.74994096484375C7.0000002,25.64943496484375,9.3505054,27.99994096484375,12.25,27.99994096484375ZM29.75,15.74993996484375C25.884007,15.74993996484375,22.75,18.88394596484375,22.749998,22.74994096484375L36.75,22.74994096484375C36.75,18.88394596484375,33.615992,15.74993996484375,29.75,15.74993996484375ZM5.25000062584877,36.74993896484375C5.25000062584877,32.88394696484375,8.3840072,29.74994096484375,12.2500014,29.74994096484375C16.115993,29.74994096484375,19.250002000000002,32.88394696484375,19.250002000000002,36.74993896484375L5.25000062584877,36.74993896484375Z" fill="#FFFFFF" fill-opacity="1"/></g></svg>